<svg width="27" height="28" viewBox="0 0 27 28" fill="none" xmlns="http://www.w3.org/2000/svg">
<path fill-rule="evenodd" clip-rule="evenodd" d="M26.9966 13.6456C26.9928 13.2424 26.9728 12.842 26.9356 12.4478C26.8107 11.1338 26.5031 9.87421 26.0422 8.69348C26.0078 8.60553 25.9761 8.51654 25.9395 8.42975C25.3253 6.94781 24.463 5.59863 23.4074 4.43433C23.3632 4.38593 23.3185 4.33795 23.2736 4.29047C23.2481 4.26343 23.2225 4.23651 23.197 4.20978C22.9976 3.99823 22.7927 3.79181 22.5806 3.59387C20.1807 1.36224 16.9935 0 13.4997 0C9.97656 0 6.76654 1.3866 4.35999 3.65228C3.79913 4.1803 3.28387 4.75647 2.81635 5.37354C1.0528 7.70325 0 10.6217 0 13.788C0 21.3914 6.05634 27.5764 13.5003 27.5764C18.7365 27.5764 23.2825 24.514 25.5202 20.0518C25.9988 19.0979 26.3715 18.0811 26.6224 17.0154C26.6863 16.7449 26.7413 16.4733 26.789 16.1982C26.925 15.415 26.9995 14.6097 26.9995 13.788C27 13.7403 26.9973 13.6932 26.9966 13.6456ZM24.4557 8.13483L24.5341 8.04523C24.6368 8.24884 24.7328 8.45581 24.8245 8.66565L24.6967 8.66058L24.4557 8.69458V8.13483ZM22.5051 5.72906L22.5073 5.11322C22.7194 5.3429 22.9238 5.57935 23.1192 5.82434L22.876 6.19415L22.0259 6.18622L21.9726 6.00531L22.5051 5.72906ZM6.22015 4.19843V4.17517H6.49054L6.51385 4.08044H6.95642V4.27783L6.82928 4.45135H6.2196L6.22015 4.19843ZM6.82062 4.78522C6.88055 4.77533 6.93585 4.76666 6.94586 4.76666C6.96918 4.76666 6.94586 5.0423 6.94586 5.0423L6.33618 5.08142L6.22015 4.93964L6.65216 4.81378C6.65216 4.81378 6.74054 4.7984 6.82062 4.78522ZM25.3159 10.287H24.3281L23.7261 9.82941L23.0926 9.89233V10.287H22.8921L22.6755 10.1294L21.5784 9.84528V9.11938L20.1879 9.22998L19.7571 9.46643H19.2051L18.9347 9.43866L18.2645 9.8186V10.5338L16.8947 11.5433L17.0085 11.9742H17.2861L17.2134 12.3849L17.0179 12.458L17.0074 13.531L18.1912 14.908H18.7065L18.7376 14.8241H19.6638L19.9308 14.5717H20.4561L20.7443 14.8666L21.5273 14.9494L21.4234 16.0128L22.2924 17.5797L21.8349 18.473L21.866 18.8937L22.2263 19.2607V20.2725L22.6995 20.9224V21.7628H23.1081C20.8337 24.6149 17.3722 26.4417 13.4991 26.4417C6.66821 26.4422 1.11053 20.7653 1.11053 13.788C1.11053 12.0316 1.46368 10.3574 2.09949 8.83582V8.4411L2.10004 8.83582V9.55603L2.61475 9.80896V10.8099L3.1084 11.6703L3.50989 11.7332L3.56152 11.4384L3.08783 10.692L2.99512 9.96667H3.27277L3.38989 10.713L4.07458 11.7332L3.89801 12.0627L4.33331 12.7427L5.41443 13.0161V12.8375L5.84698 12.9004L5.80591 13.2157L6.14575 13.2792L6.67047 13.4255L7.41174 14.2881L8.35846 14.3613L8.45123 15.1501L7.80322 15.6129L7.77264 16.3173L7.67993 16.7484L8.61725 17.9467L8.68884 18.3572C8.68884 18.3572 9.02869 18.4514 9.07031 18.4514C9.11145 18.4514 9.83215 19.0089 9.83215 19.0089V21.1747L10.0892 21.2485L9.91437 22.2477L10.3469 22.837L10.267 23.8271L10.8383 24.8531L11.5718 25.5076L12.3092 25.5212L12.3814 25.279L11.8395 24.8129L11.8705 24.5815L11.9677 24.2979L11.9883 24.0087L11.6218 23.9973L11.4369 23.7603L11.7412 23.4614L11.7823 23.2357L11.4424 23.1364L11.4625 22.9266L11.9467 22.8517L12.6829 22.4905L12.93 22.0277L13.7024 21.0182L13.5269 20.2288L13.764 19.8085L14.4742 19.8306L14.9523 19.4438L15.1067 17.9206L15.637 17.2327L15.7297 16.7908L15.246 16.6326L14.9268 16.0978L13.8356 16.0865L12.9705 15.7496L12.9294 15.1196L12.6407 14.604L11.8583 14.5921L11.4064 13.8673L11.0049 13.6671L10.9844 13.8883L10.2536 13.9326L9.98596 13.552L9.22357 13.3938L8.59558 14.135L7.60718 13.9637L7.53558 12.8261L6.81427 12.7002L7.10358 12.1422L7.02081 11.8217L6.073 12.4688L5.47662 12.3945L5.26398 11.9187L5.39392 11.4281L5.7226 10.8094L6.47943 10.4181L7.94092 10.4175L7.93701 10.8729L8.46234 11.1224L8.42065 10.3444L8.79938 9.95532L9.56342 9.44263L9.6156 9.08191L10.3774 8.27209L11.1876 7.81384L11.116 7.75372L11.6646 7.22632L11.8655 7.28076L11.9578 7.39868L12.166 7.16278L12.217 7.13953L11.9888 7.10663L11.7573 7.02783V6.80096L11.88 6.6983H12.1504L12.2742 6.75391L12.3814 6.97504L12.5125 6.95465V6.93536L12.5502 6.94843L12.93 6.88885L12.9839 6.69946L13.2004 6.755V6.96033L12.9995 7.10156L13.0294 7.32666L13.7174 7.54333L13.7191 7.55182L13.8773 7.53821L13.8879 7.2337L13.3426 6.98016L13.3115 6.83386L13.764 6.67621L13.784 6.23383L13.3109 5.93951L13.2798 5.19373L12.6313 5.51929H12.3947L12.4569 4.95154L11.574 4.73889L11.2087 5.02075V5.88049L10.5518 6.0932L10.2886 6.6535L10.0032 6.70056V5.9837L9.38574 5.89642L9.07703 5.6911L8.95264 5.22662L10.0571 4.56647L10.5974 4.39862L10.6517 4.76953L10.9527 4.75366L10.976 4.56708L11.2908 4.52112L11.2964 4.45587L11.1609 4.39862L11.1298 4.20123L11.5168 4.16779L11.7506 3.91937L11.7634 3.90125L11.7662 3.9024L11.8372 3.82751L12.6507 3.7226L13.0106 4.03455L12.0671 4.54779L13.2676 4.83704L13.4231 4.427H13.9478L14.1333 4.0697L13.7624 3.97498V3.52295L12.5991 2.9967L11.7961 3.09137L11.3431 3.33356L11.3741 3.92224L10.9005 3.84851L10.8278 3.52295L11.2814 3.10217L10.4579 3.06018L10.2214 3.13336L10.1187 3.41693L10.4274 3.47021L10.3658 3.78558L9.84106 3.81732L9.75885 4.02716L8.99762 4.04871C8.99762 4.04871 8.9765 3.60748 8.94598 3.60748C8.93237 3.60748 9.04956 3.60535 9.18365 3.60297L9.54285 3.59668L9.99652 3.14417L9.7489 3.0177L9.41962 3.34436L8.87323 3.31256L8.54395 2.84979H7.84375L7.11304 3.40729H7.78265L7.84375 3.60748L7.66992 3.77252L8.41125 3.79352L8.52448 4.06683L7.68994 4.0351L7.64941 3.82471L7.12469 3.70898L6.8465 3.55133L6.2218 3.55646C8.26685 2.03485 10.7817 1.13428 13.4997 1.13428C16.6326 1.13428 19.495 2.33032 21.6788 4.29541L21.5317 4.56421L20.9603 4.79279L20.7194 5.05988L20.7748 5.37122L21.0697 5.41321L21.2474 5.86688L21.756 5.65765L21.8399 6.26447H21.6866L21.269 6.20154L20.806 6.28088L20.3578 6.92743L19.7171 7.03009L19.6243 7.59039L19.8948 7.65564L19.8165 8.01575L19.1801 7.88531L18.5966 8.01575L18.4727 8.34753L18.5738 9.04395L18.9164 9.20782L19.4911 9.20441L19.8792 9.1687L19.9975 8.85339L20.6038 8.04865L21.0031 8.13202L21.3962 7.76904L21.4695 8.05261L22.4368 8.71899L22.3185 8.88116L21.8826 8.85736L22.0504 9.1001L22.3185 9.16022L22.6328 9.02637L22.6262 8.63959L22.7655 8.56812L22.6533 8.44678L22.0081 8.07928L21.8382 7.59094H22.3746L22.5462 7.76453L23.0082 8.17114L23.0276 8.66284L23.5062 9.18347L23.6845 8.47003L24.016 8.2851L24.0782 8.86871L24.4019 9.23163L25.0477 9.22034C25.1726 9.54871 25.2848 9.88269 25.3831 10.2236L25.3159 10.287ZM3.05731 7.25354L2.54315 7.89154C2.69641 7.59491 2.86133 7.30573 3.03735 7.02386L3.05731 7.25354ZM7.36346 6.26447L7.68768 6.10681L7.9809 6.17828L7.87982 6.58032L7.56335 6.68298L7.36346 6.26447ZM9.08423 7.211V7.47131H8.34351L8.06586 7.39246L8.13525 7.211L8.49121 7.06073H8.9776V7.211H9.08423ZM9.42517 7.57397V7.82629L9.23969 7.94824L9.00873 7.99194V7.57397H9.42517ZM9.21637 7.47131V7.17126L9.47125 7.40833L9.21637 7.47131ZM9.3324 8.07812V8.32367L9.15527 8.50519H8.7616L8.82324 8.22955L9.00928 8.21307L9.04755 8.11841L9.3324 8.07812ZM8.35181 7.57397H8.76105L8.23633 8.32312L8.01978 8.20459L8.06641 7.88928L8.35181 7.57397ZM10.0276 7.99194V8.23694H9.63391L9.52618 8.07812V7.85016H9.55731L10.0276 7.99194ZM9.66394 7.65503L9.77606 7.53479L9.96545 7.65503L9.81384 7.78265L9.66394 7.65503ZM25.5168 10.9257L25.5557 10.8792C25.5718 10.9506 25.5891 11.0221 25.6046 11.0947L25.5168 10.9257ZM19.7004 6.3382L19.6743 6.13348L19.3955 5.95483L19.2001 5.81812V5.61737L19.3139 5.43927L19.7198 5.3548L19.8231 5.86011L20.0391 6.21741L20.1829 6.38641L20.4456 6.49072L20.1984 6.79077L19.7198 6.83783H19.36L19.4 6.40173L19.7004 6.3382ZM19.35 6.02795L19.3284 6.30133L18.8198 6.66937H18.5316V6.4068L18.7786 6.00189L19.1118 5.92303L19.35 6.02795ZM12.4708 7.46222L12.3975 7.65509H12.0427V7.84222H12.1271C12.1271 7.84222 12.1321 7.8819 12.1393 7.93408L12.357 7.91541L12.493 7.82916L12.5286 7.65509L12.7046 7.63977L12.774 7.49347L12.6124 7.45941L12.4708 7.46222ZM11.5424 7.98511L11.5563 7.80194L11.6718 7.65503L11.8262 7.77924L11.7995 7.96295L11.5424 7.98511Z" fill="white"/>
</svg>
