<svg width="136" height="18" viewBox="0 0 136 18" fill="none" xmlns="http://www.w3.org/2000/svg">
<path fill-rule="evenodd" clip-rule="evenodd" d="M13.35 4.22499V1.22499C12.1 0.424993 10.6167 0.0249939 8.90001 0.0249939C6.41668 0.0249939 4.40835 0.749994 2.87501 2.19999C1.09168 3.88333 0.200012 6.05833 0.200012 8.72499C0.200012 11.2583 1.09168 13.3583 2.87501 15.025C4.49168 16.5583 6.45835 17.325 8.77501 17.325C10.425 17.325 11.95 16.9083 13.35 16.075V13.05C12 14.3333 10.5 14.975 8.85001 14.975C7.08335 14.975 5.62501 14.3833 4.47501 13.2C3.32501 12 2.75001 10.5083 2.75001 8.72499C2.75001 6.87499 3.30835 5.35833 4.42501 4.17499C5.55835 2.97499 7.02501 2.37499 8.82501 2.37499C10.475 2.37499 11.9833 2.99166 13.35 4.22499ZM33.46 0.0249939C30.9766 0.0249939 28.91 0.849994 27.26 2.49999C25.61 4.14999 24.785 6.20833 24.785 8.67499C24.785 11.1417 25.61 13.2 27.26 14.85C28.91 16.5 30.9766 17.325 33.46 17.325C35.9433 17.325 38.01 16.5 39.66 14.85C41.31 13.2 42.135 11.1417 42.135 8.67499C42.135 6.20833 41.31 4.14999 39.66 2.49999C38.01 0.849994 35.9433 0.0249939 33.46 0.0249939ZM33.46 14.975C31.6766 14.975 30.21 14.3917 29.06 13.225C27.91 12.0417 27.335 10.525 27.335 8.67499C27.335 6.82499 27.91 5.31666 29.06 4.14999C30.21 2.96666 31.6766 2.37499 33.46 2.37499C35.2433 2.37499 36.71 2.96666 37.86 4.14999C39.01 5.31666 39.585 6.82499 39.585 8.67499C39.585 10.525 39.01 12.0417 37.86 13.225C36.71 14.3917 35.2433 14.975 33.46 14.975ZM45.3359 0.325012H47.8859V10.375C47.8859 11.675 48.0609 12.6333 48.4109 13.25C48.6943 13.7167 49.1109 14.125 49.6609 14.475C50.2109 14.8083 50.8276 14.975 51.5109 14.975C52.1943 14.975 52.8109 14.8083 53.3609 14.475C53.9109 14.125 54.3276 13.7167 54.6109 13.25C54.9609 12.6333 55.1359 11.675 55.1359 10.375V0.325012H57.6859V11.05C57.6859 12.8 57.1693 14.2417 56.1359 15.375C54.9359 16.675 53.3943 17.325 51.5109 17.325C49.6276 17.325 48.0859 16.675 46.8859 15.375C45.8526 14.2417 45.3359 12.8 45.3359 11.05V0.325012ZM65.1934 0.325012H61.6934V17H65.1434C66.4434 17 67.56 16.8917 68.4934 16.675C69.4267 16.4583 70.3434 16.0333 71.2434 15.4C73.4767 13.8333 74.5934 11.5917 74.5934 8.67501C74.5934 7.29168 74.31 6.01668 73.7434 4.85001C73.1934 3.68335 72.41 2.71668 71.3934 1.95001C70.5434 1.31668 69.6267 0.891679 68.6434 0.675012C67.66 0.441679 66.51 0.325012 65.1934 0.325012ZM64.2434 14.6V2.72501H65.3434C67.2434 2.72501 68.7267 3.10835 69.7934 3.87501C70.4434 4.34168 70.9767 5.00001 71.3934 5.85001C71.8267 6.70001 72.0434 7.64168 72.0434 8.67501C72.0434 10.6917 71.285 12.275 69.7684 13.425C68.7184 14.2083 67.2434 14.6 65.3434 14.6H64.2434ZM92.9172 0.325012V4.00001H87.6922V6.77501H92.4422V10.45H87.6922V17H83.3672V0.325012H92.9172ZM99.826 0.325012H95.501V17H105.026V13.325H99.826V0.325012ZM116.719 0.325012V4.00001H111.569V6.77501H116.444V10.45H111.569V13.325H116.719V17H107.244V0.325012H116.719ZM117.726 17L124.251 8.10001L118.901 0.325012H124.251L126.726 4.65001L129.301 0.325012H134.626L129.201 8.10001L135.501 17H130.251L126.701 11.575L122.951 17H117.726ZM16.5029 0.325012H19.0529V14.6H23.9529V17H16.5029V0.325012Z" fill="white"/>
</svg>
