<svg width="35" height="33" viewBox="0 0 35 33" fill="none" xmlns="http://www.w3.org/2000/svg">
<path fill-rule="evenodd" clip-rule="evenodd" d="M19.1152 0H3.83594C2.1875 0 0.84668 1.27869 0.84668 2.85034V7.60095H15.7939L19.1152 0ZM5.8291 4.75061C5.27881 4.75061 4.83252 4.3252 4.83252 3.80054C4.83252 3.27576 5.27881 2.85034 5.8291 2.85034C6.37939 2.85034 6.82568 3.27576 6.82568 3.80054C6.82568 4.3252 6.37939 4.75061 5.8291 4.75061ZM9.81494 4.75061C9.26465 4.75061 8.81836 4.3252 8.81836 3.80054C8.81836 3.27576 9.26465 2.85034 9.81494 2.85034C10.3652 2.85034 10.8115 3.27576 10.8115 3.80054C10.8115 4.3252 10.3652 4.75061 9.81494 4.75061ZM13.8008 4.75061C13.2505 4.75061 12.8042 4.3252 12.8042 3.80054C12.8042 3.27576 13.2505 2.85034 13.8008 2.85034C14.3511 2.85034 14.7974 3.27576 14.7974 3.80054C14.7974 4.3252 14.3511 4.75061 13.8008 4.75061ZM20.8423 14.9403V18.4324C20.8423 18.9572 20.3965 19.3826 19.8462 19.3826H15.8599C15.3096 19.3826 14.8638 18.9572 14.8638 18.4324V14.9403C13.6333 15.8219 12.8706 17.219 12.8706 18.7345C12.8706 20.5432 13.9316 22.17 15.6396 22.9802C15.978 23.1409 16.1924 23.4703 16.1924 23.8309V32.4309H19.5137V23.8309C19.5137 23.4703 19.728 23.1409 20.0664 22.9802C21.7744 22.1702 22.8354 20.5432 22.8354 18.7345C22.8354 17.219 22.0728 15.8219 20.8423 14.9403ZM21.2744 0H31.8701C33.5186 0 34.8594 1.27869 34.8594 2.85034V29.5806C34.8594 31.1522 33.5186 32.4309 31.8701 32.4309H21.5068V24.3899C23.5703 23.1841 24.8286 21.0676 24.8286 18.7345C24.8286 15.926 22.96 13.4083 20.1787 12.4695C19.8735 12.3665 19.5352 12.4111 19.271 12.5892C19.0068 12.7672 18.8496 13.0565 18.8496 13.3651V17.4823H16.8564V13.3651C16.8564 13.0565 16.6997 12.7672 16.4355 12.5892C16.292 12.4927 16.127 12.4353 15.957 12.4194C15.814 12.4061 15.6675 12.4224 15.5278 12.4695C12.7466 13.4083 10.8779 15.926 10.8779 18.7345C10.8779 21.0677 12.1357 23.1841 14.1992 24.3899V32.4309H3.83594C2.1875 32.4309 0.84668 31.1522 0.84668 29.5806V9.50122H16.458C16.8604 9.50122 17.2231 9.27063 17.3779 8.91663L21.2744 0ZM5.8291 14.2518H8.48633C9.03662 14.2518 9.48291 13.8264 9.48291 13.3018C9.48291 12.777 9.03662 12.3516 8.48633 12.3516H5.8291C5.27881 12.3516 4.83252 12.777 4.83252 13.3018C4.83252 13.8264 5.27881 14.2518 5.8291 14.2518Z" fill="black"/>
</svg>
