<svg width="35" height="29" viewBox="0 0 35 29" fill="none" xmlns="http://www.w3.org/2000/svg">
<path d="M31.8366 0.710815H3.06777C1.37613 0.710815 0 2.0244 0 3.63914V23.2915C0 24.9062 1.37613 26.2198 3.06777 26.2198H12.2711V28.172H22.5651V26.2198H31.8366C33.5283 26.2198 34.9044 24.9062 34.9044 23.2915V3.63914C34.9044 2.0244 33.5283 0.710815 31.8366 0.710815ZM11.9715 18.0598L7.88117 21.9643C7.48174 22.3455 6.83458 22.3455 6.43516 21.9643L4.38998 20.0121C3.99049 19.6308 3.99049 19.0131 4.38998 18.6318C4.7894 18.2506 5.43656 18.2506 5.83599 18.6318L7.15813 19.8939L10.5255 16.6796C10.9249 16.2983 11.5721 16.2983 11.9715 16.6796C12.3709 17.0608 12.3709 17.6786 11.9715 18.0598ZM11.9715 12.2032L7.88117 16.1076C7.48174 16.4889 6.83458 16.4889 6.43516 16.1076L4.38998 14.1554C3.99049 13.7741 3.99049 13.1565 4.38998 12.7752C4.7894 12.3939 5.43656 12.3939 5.83599 12.7752L7.15813 14.0372L10.5255 10.8229C10.9249 10.4416 11.5721 10.4416 11.9715 10.8229C12.3709 11.2042 12.3709 11.8219 11.9715 12.2032ZM11.9715 6.34654L7.88117 10.251C7.48174 10.6322 6.83458 10.6322 6.43516 10.251L4.38998 8.29876C3.99049 7.91749 3.99049 7.29981 4.38998 6.91854C4.7894 6.53727 5.43656 6.53727 5.83599 6.91854L7.15813 8.18058L10.5255 4.96626C10.9249 4.58499 11.5721 4.58499 11.9715 4.96626C12.3709 5.34752 12.3709 5.96527 11.9715 6.34654ZM29.7914 20.2981H15.3388C14.7736 20.2981 14.3163 19.8615 14.3163 19.3219C14.3163 18.7824 14.7736 18.3458 15.3388 18.3458H29.7914C30.3567 18.3458 30.814 18.7824 30.814 19.3219C30.814 19.8615 30.3567 20.2981 29.7914 20.2981ZM29.7914 14.4414H15.3388C14.7736 14.4414 14.3163 14.0048 14.3163 13.4653C14.3163 12.9258 14.7736 12.4892 15.3388 12.4892H29.7914C30.3567 12.4892 30.814 12.9258 30.814 13.4653C30.814 14.0048 30.3567 14.4414 29.7914 14.4414ZM29.7914 8.58475H15.3388C14.7736 8.58475 14.3163 8.14817 14.3163 7.60865C14.3163 7.06912 14.7736 6.63254 15.3388 6.63254H29.7914C30.3567 6.63254 30.814 7.06912 30.814 7.60865C30.814 8.14817 30.3567 8.58475 29.7914 8.58475Z" fill="black"/>
</svg>
