<svg width="34" height="29" viewBox="0 0 34 29" fill="none" xmlns="http://www.w3.org/2000/svg">
<path fill-rule="evenodd" clip-rule="evenodd" d="M21.8184 10.027H13.0933C12.5581 10.027 12.124 10.3993 12.124 10.8579V18.3367H1.39502C0.859863 18.3367 0.425781 17.9644 0.425781 17.5057V0.830933C0.425781 0.372314 0.859863 0 1.39502 0H20.8491C21.3843 0 21.8184 0.372314 21.8184 0.830933V10.027ZM21.8184 10.027L21.8188 17.5056C21.8188 17.9644 21.3843 18.3367 20.8491 18.3367H12.124V27.5327C12.124 27.9913 12.5581 28.3636 13.0933 28.3636H32.5474C33.0825 28.3636 33.5166 27.9913 33.5166 27.5327V10.8579C33.5166 10.3993 33.0825 10.027 32.5474 10.027H21.8184Z" fill="black"/>
</svg>
