<svg width="22" height="33" viewBox="0 0 22 33" fill="none" xmlns="http://www.w3.org/2000/svg">
<path d="M15.7533 27.709V28.9339C15.7533 29.9087 15.0103 30.7195 14.0435 30.8576L13.7302 31.9703C13.5601 32.5741 12.9962 32.9968 12.3427 32.9968H9.23649C8.58302 32.9968 8.01907 32.5741 7.84899 31.9703L7.54463 30.8576C6.5689 30.7109 5.82592 29.9087 5.82592 28.9253V27.7004C5.82592 27.0448 6.37197 26.5186 7.05229 26.5186H14.5269C15.2072 26.5272 15.7533 27.0534 15.7533 27.709ZM21.5092 11.1987C21.5092 13.9849 20.3633 16.5123 18.5014 18.367C17.0871 19.7816 16.174 21.5845 15.8696 23.5081C15.7354 24.3362 14.9924 24.9487 14.1151 24.9487H7.46407C6.59576 24.9487 5.84382 24.3448 5.7185 23.5167C5.40519 21.5931 4.48318 19.7644 3.06882 18.3583C1.24269 16.5296 0.105838 14.0453 0.0789827 11.3108C0.0163214 5.56582 4.76068 0.916354 10.7225 0.873223C16.6753 0.830093 21.5092 5.47094 21.5092 11.1987ZM12.0025 4.94474C12.0025 4.30641 11.4654 3.78022 10.7941 3.78022C6.5331 3.78022 3.05987 7.11852 3.05987 11.2332C3.05987 11.8715 3.59697 12.3977 4.26834 12.3977C4.93076 12.3977 5.47681 11.8801 5.47681 11.2332C5.47681 8.40381 7.86689 6.10927 10.7941 6.10927C11.4654 6.10927 12.0025 5.5917 12.0025 4.94474Z" fill="black"/>
</svg>
