<svg width="40" height="26" viewBox="0 0 40 26" fill="none" xmlns="http://www.w3.org/2000/svg">
<path d="M5.9708 0.953003H34.2849C37.3664 0.953003 39.874 3.08709 39.874 5.71023V20.786C39.874 23.4092 37.3664 25.5433 34.2849 25.5433H5.9708C2.88932 25.5433 0.381718 23.4092 0.381718 20.786V5.71023C0.381718 3.08709 2.88932 0.953003 5.9708 0.953003V0.953003ZM25.5419 8.52111L31.4217 13.5252L26.1929 17.9752C25.7409 18.3598 25.7409 18.9835 26.1929 19.3675C26.6441 19.7521 27.3769 19.7521 27.8289 19.3675L33.8761 14.221C34.3281 13.8363 34.3281 13.2133 33.8761 12.8287L27.1786 7.1288C26.7266 6.74412 25.9939 6.74412 25.5419 7.1288C25.0906 7.51281 25.0906 8.13643 25.5419 8.52111V8.52111ZM15.9981 6.20453L22.1164 20.9475C22.3293 21.4609 22.9903 21.7293 23.5927 21.5482C24.1951 21.367 24.5114 20.8044 24.2985 20.2917L18.1803 5.54874C17.9674 5.03606 17.3071 4.76692 16.7039 4.9481C16.1015 5.12928 15.7853 5.69185 15.9981 6.20453V6.20453ZM6.37961 13.6676L13.0771 19.3675C13.5291 19.7521 14.2619 19.7521 14.7139 19.3675C15.1651 18.9835 15.1651 18.3598 14.7139 17.9752L8.834 12.9711L14.0629 8.52111C14.5149 8.13643 14.5149 7.51281 14.0629 7.1288C13.6116 6.74412 12.8789 6.74412 12.4269 7.1288L6.37961 12.2753C5.92761 12.66 5.92761 13.2829 6.37961 13.6676V13.6676Z" fill="white"/>
</svg>
