<svg width="38" height="31" viewBox="0 0 38 31" fill="none" xmlns="http://www.w3.org/2000/svg">
<path fill-rule="evenodd" clip-rule="evenodd" d="M36.252 0H1.09424C0.48999 0 0 0.436035 0 0.973755V18.1912H9.2251C9.57227 17.5314 10.1357 16.3204 10.2954 15.1523C10.4697 13.8763 11.0679 12.7035 11.98 11.8503C12.979 10.9156 14.3208 10.4009 15.7583 10.4009C16.0205 10.4009 16.2783 10.4185 16.5312 10.4504L22.9351 4.75085C23.5552 4.1991 24.3794 3.89514 25.2559 3.89514C26.1328 3.89514 26.957 4.1991 27.5771 4.75098C28.1968 5.30261 28.5386 6.03625 28.5386 6.81653C28.5386 7.5968 28.1968 8.33044 27.5767 8.8822L21.1729 14.5818C21.1885 14.6788 21.2007 14.7767 21.21 14.8754C21.2222 15.0055 21.2285 15.137 21.2285 15.2699C21.2285 16.3651 20.8198 17.3768 20.1318 18.1912H37.3462V0.973755C37.3462 0.435913 36.856 0 36.252 0ZM15.7578 12.3484C13.7822 12.3484 12.6675 13.9237 12.4678 15.3872C12.3291 16.4033 11.9595 17.4117 11.6099 18.1912H15.7578C17.5679 18.1912 19.0405 16.8806 19.0405 15.2698C19.0405 13.6589 17.5679 12.3484 15.7578 12.3484ZM26.0298 7.50513L20.3203 12.5868C19.9136 12.0406 19.3862 11.5718 18.7729 11.2097L24.4824 6.12793C24.6895 5.94409 24.9639 5.84277 25.2563 5.84277C25.4468 5.84277 25.6304 5.88599 25.792 5.96716C25.8779 6.01025 25.958 6.06421 26.0298 6.12805C26.1313 6.21838 26.21 6.32324 26.2642 6.43726C26.2974 6.50684 26.3213 6.57983 26.3354 6.65503C26.3452 6.70789 26.3501 6.76184 26.3501 6.81653C26.3501 7.07654 26.2363 7.32117 26.0298 7.50513ZM0 23.7094C0 24.2472 0.48999 24.6831 1.09424 24.6831H36.252C36.856 24.6831 37.3462 24.2472 37.3462 23.7094V20.1388H0V23.7094ZM23.0498 28.5784H24.1436C24.748 28.5784 25.2378 29.0143 25.2378 29.5521C25.2378 30.0898 24.748 30.5259 24.1436 30.5259H13.2026C12.5981 30.5259 12.1084 30.0898 12.1084 29.5521C12.1084 29.0143 12.5981 28.5784 13.2026 28.5784H14.2969V26.6307H23.0498V28.5784Z" fill="black"/>
</svg>
