<svg width="25" height="24" viewBox="0 0 25 24" fill="none" xmlns="http://www.w3.org/2000/svg">
<path fill-rule="evenodd" clip-rule="evenodd" d="M21.3379 0H3.66211C1.64307 0 0 1.55176 0 3.4585V20.1523C0 22.0596 1.64307 23.6113 3.66211 23.6113H21.3379C23.3569 23.6113 25 22.0596 25 20.1523V3.4585C25 1.55176 23.3569 0 21.3379 0ZM12.5488 17.9849C8.91406 17.9849 5.95703 15.1924 5.95703 11.7593C5.95703 8.32666 8.91406 5.53369 12.5488 5.53369C16.1836 5.53369 19.1406 8.32666 19.1406 11.7593C19.1406 15.1924 16.1836 17.9849 12.5488 17.9849ZM19.873 6.91748C18.6616 6.91748 17.6758 5.98633 17.6758 4.84229C17.6758 3.69775 18.6616 2.76709 19.873 2.76709C21.0845 2.76709 22.0703 3.69775 22.0703 4.84229C22.0703 5.98633 21.0845 6.91748 19.873 6.91748ZM19.873 4.15039C19.469 4.15039 19.1406 4.46045 19.1406 4.84229C19.1406 4.9209 19.1545 4.99658 19.1802 5.06689C19.2378 5.2251 19.3542 5.35742 19.5051 5.43994C19.6133 5.49951 19.739 5.53369 19.873 5.53369C20.2771 5.53369 20.6055 5.22363 20.6055 4.84229C20.6055 4.46045 20.2771 4.15039 19.873 4.15039ZM7.42188 11.7598C7.42188 9.08984 9.72217 6.91748 12.5488 6.91748C15.3755 6.91748 17.6758 9.08984 17.6758 11.7598C17.6758 14.4292 15.3755 16.6016 12.5488 16.6016C9.72217 16.6016 7.42188 14.4292 7.42188 11.7598Z" fill="white"/>
</svg>
